<svg width="20" height="22" viewBox="0 0 20 22" fill="none" xmlns="http://www.w3.org/2000/svg">
<path fill-rule="evenodd" clip-rule="evenodd" d="M12.1667 17.5C12.1667 18.6966 11.1966 19.6666 10 19.6666C8.80338 19.6666 7.83333 18.6966 7.83333 17.5H12.1667ZM10 0.166626C5.8075 0.166626 2.41667 4.04496 2.41667 8.83329V11.3141L0.25 17.5H5.66667C5.66667 19.8932 7.60677 21.8333 10 21.8333C12.3932 21.8333 14.3333 19.8932 14.3333 17.5H19.75L17.5833 11.3141V9.14746C17.5833 5.04163 15.1892 1.28246 11.6792 0.480793C11.1343 0.308313 10.5704 0.202814 10 0.166626ZM3.305 15.3333L4.46417 12.0833L4.58333 11.6825V8.83329C4.58333 5.24746 7.01 2.33329 10 2.33329C10.3907 2.33266 10.78 2.37996 11.1592 2.47413C13.5858 3.06996 15.4167 5.91913 15.4167 9.09329V11.6825L15.5358 12.0291L16.695 15.3333L3.305 15.3333Z" fill="white"/>
</svg>
