<svg width="20" height="20" viewBox="0 0 20 20" fill="none" xmlns="http://www.w3.org/2000/svg">
<path d="M13.9899 18.8674C13.722 19.1352 13.3586 19.2858 12.9798 19.2858H7.02037C6.6415 19.2858 6.27813 19.1352 6.01023 18.8674L1.13277 13.9899C0.864865 13.722 0.714355 13.3586 0.714355 12.9798V7.02037C0.714355 6.6415 0.864865 6.27813 1.13277 6.01023L6.01023 1.13277C6.27813 0.864865 6.6415 0.714355 7.02037 0.714355H12.9798C13.3586 0.714355 13.722 0.864865 13.9899 1.13277L18.8674 6.01023C19.1352 6.27813 19.2858 6.6415 19.2858 7.02037V12.9798C19.2858 13.3586 19.1352 13.722 18.8674 13.9899L13.9899 18.8674Z" stroke="white" stroke-linecap="round" stroke-linejoin="round"/>
<path d="M10 5.71436V10.3572" stroke="white" stroke-linecap="round" stroke-linejoin="round"/>
<path d="M10.0002 14.2858C9.80297 14.2858 9.64307 14.1259 9.64307 13.9287C9.64307 13.7314 9.80297 13.5715 10.0002 13.5715" stroke="white" stroke-linecap="round" stroke-linejoin="round"/>
<path d="M10 14.2858C10.1972 14.2858 10.3571 14.1259 10.3571 13.9287C10.3571 13.7314 10.1972 13.5715 10 13.5715" stroke="white" stroke-linecap="round" stroke-linejoin="round"/>
</svg>
